#!OML:ASF F:\VICON\USERDATA\INSTALL\rory3\rory3.ASF
:FULLY-SPECIFIED
:DEGREES
166
root 1.25514 16.9837 -17.048 7.76904 -1.58909 -2.01519
lowerback 14.4159 -0.226306 0.346872
upperback 1.81018 -0.0531068 2.89385
thorax -6.16657 -0.00258968 2.8796
lowerneck -19.7621 -3.92514 -8.47542
upperneck 7.95701 -3.91056 6.42295
head 5.8873 -1.66605 3.00465
rclavicle 2.98177e-015 1.27222e-014
rhumerus -29.9013 -1.28235 -82.6225
rradius 45.0958
rwrist 1.00669
rhand -13.3265 12.9212
rfingers 7.12502
rthumb 12.7785 -16.6678
lclavicle 2.98177e-015 1.27222e-014
lhumerus -27.5265 -0.255461 87.1539
lradius 37.8009
lwrist -4.40347
lhand -22.1301 18.1395
lfingers 7.12502
lthumb 4.28318 48.0761
rfemur -25.9284 1.62194 22.6085
rtibia 45.392
rfoot -20.1455 -8.82999
rtoes -1.17246
lfemur -26.2835 1.10457 -18.7637
ltibia 46.004
lfoot -23.456 3.81467
ltoes -2.09773
167
root 1.24715 16.9149 -17.0743 7.76843 -1.42432 -1.85843
lowerback 14.9504 -0.255923 0.198404
upperback 1.87437 -0.111937 2.81909
thorax -6.39031 -0.027198 2.90348
lowerneck -19.8516 -3.96059 -8.45888
upperneck 7.69608 -3.9669 6.58497
head 5.82602 -1.67754 3.04734
rclavicle -7.95139e-016 7.55382e-015
rhumerus -29.932 -1.53311 -82.4697
rradius 46.5368
rwrist 3.86134
rhand -10.5156 5.97323
rfingers 7.12502
rthumb 15.4871 -23.4265
lclavicle -7.95139e-016 7.55382e-015
lhumerus -27.5085 -0.61915 87.0797
lradius 38.4831
lwrist -4.00933
lhand -24.0615 16.5346
lfingers 7.12502
lthumb 2.41797 46.5006
rfemur -26.9033 1.29167 22.5186
rtibia 47.0687
rfoot -20.7165 -8.82805
rtoes -1.23194
lfemur -27.2323 1.23699 -18.9263
ltibia 47.2682
lfoot -23.7092 3.7969
ltoes -2.67276
168
root 1.24279 16.8424 -17.0984 7.77218 -1.13667 -1.73529
lowerback 15.5219 -0.339598 0.130957
upperback 1.91175 -0.225603 2.79204
thorax -6.65987 -0.0790198 2.94563
lowerneck -20.2128 -3.97226 -8.41552
upperneck 7.62316 -3.96595 6.62291
head 5.85942 -1.66609 3.05033
rclavicle 9.93923e-016 4.25399e-014
rhumerus -30.1176 -0.742532 -82.8186
rradius 46.8015
rwrist -0.0521347
rhand -7.98662 3.16381
rfingers 7.12502
rthumb 17.9217 -26.0304
lclavicle 9.93923e-016 4.25399e-014
lhumerus -27.456 -0.886723 87.0194
lradius 39.0257
lwrist -3.80595
lhand -24.3761 16.0009
lfingers 7.12502
lthumb 2.11413 45.9702
rfemur -27.8689 0.768167 22.4741
rtibia 48.7143
rfoot -21.1911 -8.92262
rtoes -1.90512
lfemur -28.159 1.24836 -19.08
ltibia 48.5845
lfoot -23.9255 4.00686
ltoes -4.34591
169
root 1.23602 16.7675 -17.1228 7.88316 -0.988113 -1.76071
lowerback 15.982 -0.410523 0.0621932
upperback 1.87196 -0.316127 2.86652
thorax -6.95091 -0.117124 3.09365
lowerneck -19.9979 -3.94555 -8.58558
upperneck 7.16345 -3.90867 6.79672
head 5.68217 -1.63245 3.14122
rclavicle -2.38542e-015 -2.10712e-014
rhumerus -30.1734 -0.627334 -82.706
rradius 47.8243
rwrist 1.20937
rhand -13.4068 10.1459
rfingers 7.12502
rthumb 12.701 -19.4478
lclavicle -2.38542e-015 -2.10712e-014
lhumerus -27.6498 -1.06025 86.9733
lradius 39.6177
lwrist -3.48075
lhand -24.1683 16.1917
lfingers 7.12502
lthumb 2.31477 46.1589
rfemur -28.9549 0.43255 22.5934
rtibia 50.3491
rfoot -21.5946 -9.0661
rtoes -2.86143
lfemur -29.2308 1.37692 -19.0388
ltibia 50.0465
lfoot -24.2145 3.90464
ltoes -4.88943
170
root 1.22563 16.6831 -17.1522 8.06764 -0.964168 -1.84061
lowerback 16.3828 -0.413228 -0.000364787
upperback 1.84849 -0.319432 2.91493
thorax -7.19637 -0.113558 3.19103
lowerneck -19.8566 -3.95686 -8.67679
upperneck 6.74714 -3.92114 6.99612
head 5.53547 -1.62737 3.21941
rclavicle 6.75868e-015 -1.86858e-014
rhumerus -30.255 -0.356523 -82.8182
rradius 48.6161
rwrist 0.672751
rhand -14.7859 14.5041
rfingers 7.12502
rthumb 11.3712 -15.1675
lclavicle 6.75868e-015 -1.86858e-014
lhumerus -27.7613 -1.29719 86.8627
lradius 40.2526
lwrist -3.18962
lhand -23.4287 17.7775
lfingers 7.12502
lthumb 3.02912 47.7358
rfemur -30.196 0.31358 22.7745
rtibia 51.9747
rfoot -21.9695 -9.19727
rtoes -3.70799
lfemur -30.4825 1.60226 -18.8997
ltibia 51.6219
lfoot -24.6206 3.61943
ltoes -4.62933
171
root 1.21637 16.5998 -17.1838 8.19271 -0.754581 -1.93163
lowerback 16.9181 -0.489365 0.0356715
upperback 1.83402 -0.399485 2.96148
thorax -7.50257 -0.149106 3.25105
lowerneck -20.1455 -3.97262 -8.56562
upperneck 6.7045 -3.93893 6.9483
head 5.56488 -1.63115 3.18224
rclavicle -2.5842e-015 -5.56597e-015
rhumerus -30.3844 -0.0462253 -82.9389
rradius 49.6268
rwrist 0.102739
rhand -14.806 16.3279
rfingers 7.12502
rthumb 11.3519 -13.3449
lclavicle -2.5842e-015 -5.56597e-015
lhumerus -27.6918 -1.2938 86.7214
lradius 40.723
lwrist -3.10447
lhand -23.0031 18.8211
lfingers 7.12502
lthumb 3.4401 48.7731
rfemur -31.3896 0.022592 22.9855
rtibia 53.6023
rfoot -22.4218 -9.36188
rtoes -3.78801
lfemur -31.6789 1.75891 -18.7798
ltibia 53.2683
lfoot -25.0597 3.51482
ltoes -5.40978
